<svg height="810" id="vis" viewBox="-5 -5 810 810" width="810" xmlns="http://www.w3.org/2000/svg">
<rect fill="white" height="810" width="810" x="-5" y="-5"/>
<path d="M475,417 L232,454" stroke="lightgray" stroke-width="1"/>
<path d="M397,261 L289,480" stroke="lightgray" stroke-width="1"/>
<path d="M546,333 L525,501" stroke="lightgray" stroke-width="1"/>
<path d="M438,404 L468,226" stroke="lightgray" stroke-width="1"/>
<path d="M494,363 L412,539" stroke="lightgray" stroke-width="1"/>
<path d="M310,529 L292,315" stroke="lightgray" stroke-width="1"/>
<path d="M385,394 L683,406" stroke="lightgray" stroke-width="1"/>
<path d="M192,270 L334,599" stroke="lightgray" stroke-width="1"/>
<path d="M197,279 L396,405" stroke="lightgray" stroke-width="1"/>
<path d="M407,578 L556,427" stroke="lightgray" stroke-width="1"/>
<path d="M360,493 L480,592" stroke="lightgray" stroke-width="1"/>
<path d="M436,529 L232,482" stroke="lightgray" stroke-width="1"/>
<path d="M491,430 L343,307" stroke="lightgray" stroke-width="1"/>
<path d="M535,457 L391,497" stroke="lightgray" stroke-width="1"/>
<path d="M512,382 L533,295" stroke="lightgray" stroke-width="1"/>
<path d="M508,488 L295,366" stroke="lightgray" stroke-width="1"/>
<path d="M539,222 L571,303" stroke="lightgray" stroke-width="1"/>
<path d="M385,566 L242,528" stroke="lightgray" stroke-width="1"/>
<path d="M489,268 L594,338" stroke="lightgray" stroke-width="1"/>
<path d="M211,385 L405,353" stroke="lightgray" stroke-width="1"/>
<path d="M267,562 L414,365" stroke="lightgray" stroke-width="1"/>
<path d="M524,244 L371,211" stroke="lightgray" stroke-width="1"/>
<path d="M337,317 L324,475" stroke="lightgray" stroke-width="1"/>
<path d="M295,283 L278,465" stroke="lightgray" stroke-width="1"/>
<path d="M290,390 L415,258" stroke="lightgray" stroke-width="1"/>
<path d="M366,259 L226,436" stroke="lightgray" stroke-width="1"/>
<path d="M411,215 L485,425" stroke="lightgray" stroke-width="1"/>
<path d="M453,363 L179,374" stroke="lightgray" stroke-width="1"/>
<path d="M394,339 L608,401" stroke="lightgray" stroke-width="1"/>
<path d="M231,255 L390,257" stroke="lightgray" stroke-width="1"/>
<path d="M500,454 L277,375" stroke="lightgray" stroke-width="1"/>
<path d="M100,417 L376,417" stroke="lightgray" stroke-width="1"/>
<path d="M461,521 L604,522" stroke="lightgray" stroke-width="1"/>
<path d="M194,347 L489,344" stroke="lightgray" stroke-width="1"/>
<path d="M522,462 L407,367" stroke="lightgray" stroke-width="1"/>
<path d="M347,194 L426,139" stroke="lightgray" stroke-width="1"/>
<path d="M386,434 L565,430" stroke="lightgray" stroke-width="1"/>
<path d="M264,516 L464,461" stroke="lightgray" stroke-width="1"/>
<path d="M404,353 L314,544" stroke="lightgray" stroke-width="1"/>
<path d="M372,471 L305,324" stroke="lightgray" stroke-width="1"/>
<path d="M468,441 L606,387" stroke="lightgray" stroke-width="1"/>
<path d="M379,410 L494,369" stroke="lightgray" stroke-width="1"/>
<path d="M299,374 L302,549" stroke="lightgray" stroke-width="1"/>
<path d="M239,276 L402,231" stroke="lightgray" stroke-width="1"/>
<path d="M470,340 L226,344" stroke="lightgray" stroke-width="1"/>
<path d="M339,440 L352,314" stroke="lightgray" stroke-width="1"/>
<path d="M363,646 L297,396" stroke="lightgray" stroke-width="1"/>
<path d="M284,202 L330,283" stroke="lightgray" stroke-width="1"/>
<path d="M399,493 L487,284" stroke="lightgray" stroke-width="1"/>
<path d="M468,405 L381,639" stroke="lightgray" stroke-width="1"/>
<path d="M400,400 L379,410" stroke="brown" stroke-width="3"/>
<path d="M379,410 L386,434" stroke="brown" stroke-width="3"/>
<path d="M386,434 L372,471" stroke="brown" stroke-width="3"/>
<path d="M372,471 L360,493" stroke="brown" stroke-width="3"/>
<path d="M360,493 L399,493" stroke="brown" stroke-width="3"/>
<path d="M399,493 L436,529" stroke="brown" stroke-width="3"/>
<path d="M436,529 L461,521" stroke="brown" stroke-width="3"/>
<path d="M461,521 L508,488" stroke="brown" stroke-width="3"/>
<path d="M508,488 L522,462" stroke="brown" stroke-width="3"/>
<path d="M522,462 L535,457" stroke="brown" stroke-width="3"/>
<path d="M535,457 L500,454" stroke="brown" stroke-width="3"/>
<path d="M500,454 L491,430" stroke="brown" stroke-width="3"/>
<path d="M491,430 L475,417" stroke="brown" stroke-width="3"/>
<path d="M475,417 L468,405" stroke="brown" stroke-width="3"/>
<path d="M468,405 L438,404" stroke="brown" stroke-width="3"/>
<path d="M438,404 L453,363" stroke="brown" stroke-width="3"/>
<path d="M453,363 L470,340" stroke="brown" stroke-width="3"/>
<path d="M470,340 L494,363" stroke="brown" stroke-width="3"/>
<path d="M494,363 L494,369" stroke="brown" stroke-width="3"/>
<path d="M494,369 L512,382" stroke="brown" stroke-width="3"/>
<path d="M512,382 L546,333" stroke="brown" stroke-width="3"/>
<path d="M546,333 L533,295" stroke="brown" stroke-width="3"/>
<path d="M533,295 L487,284" stroke="brown" stroke-width="3"/>
<path d="M487,284 L489,268" stroke="brown" stroke-width="3"/>
<path d="M489,268 L524,244" stroke="brown" stroke-width="3"/>
<path d="M524,244 L539,222" stroke="brown" stroke-width="3"/>
<path d="M539,222 L468,226" stroke="brown" stroke-width="3"/>
<path d="M468,226 L411,215" stroke="brown" stroke-width="3"/>
<path d="M411,215 L371,211" stroke="brown" stroke-width="3"/>
<path d="M371,211 L347,194" stroke="brown" stroke-width="3"/>
<path d="M347,194 L284,202" stroke="brown" stroke-width="3"/>
<path d="M284,202 L295,283" stroke="brown" stroke-width="3"/>
<path d="M295,283 L330,283" stroke="brown" stroke-width="3"/>
<path d="M330,283 L239,276" stroke="brown" stroke-width="3"/>
<path d="M239,276 L231,255" stroke="brown" stroke-width="3"/>
<path d="M231,255 L192,270" stroke="brown" stroke-width="3"/>
<path d="M192,270 L197,279" stroke="brown" stroke-width="3"/>
<path d="M197,279 L226,344" stroke="brown" stroke-width="3"/>
<path d="M226,344 L194,347" stroke="brown" stroke-width="3"/>
<path d="M194,347 L100,417" stroke="brown" stroke-width="3"/>
<path d="M100,417 L179,374" stroke="brown" stroke-width="3"/>
<path d="M179,374 L211,385" stroke="brown" stroke-width="3"/>
<path d="M211,385 L277,375" stroke="brown" stroke-width="3"/>
<path d="M277,375 L290,390" stroke="brown" stroke-width="3"/>
<path d="M290,390 L299,374" stroke="brown" stroke-width="3"/>
<path d="M299,374 L295,366" stroke="brown" stroke-width="3"/>
<path d="M295,366 L305,324" stroke="brown" stroke-width="3"/>
<path d="M305,324 L337,317" stroke="brown" stroke-width="3"/>
<path d="M337,317 L343,307" stroke="brown" stroke-width="3"/>
<path d="M343,307 L366,259" stroke="brown" stroke-width="3"/>
<path d="M366,259 L390,257" stroke="brown" stroke-width="3"/>
<path d="M390,257 L402,231" stroke="brown" stroke-width="3"/>
<path d="M402,231 L426,139" stroke="brown" stroke-width="3"/>
<path d="M426,139 L415,258" stroke="brown" stroke-width="3"/>
<path d="M415,258 L397,261" stroke="brown" stroke-width="3"/>
<path d="M397,261 L394,339" stroke="brown" stroke-width="3"/>
<path d="M394,339 L404,353" stroke="brown" stroke-width="3"/>
<path d="M404,353 L405,353" stroke="brown" stroke-width="3"/>
<path d="M405,353 L385,394" stroke="brown" stroke-width="3"/>
<path d="M385,394 L407,367" stroke="brown" stroke-width="3"/>
<path d="M407,367 L376,417" stroke="brown" stroke-width="3"/>
<path d="M376,417 L339,440" stroke="brown" stroke-width="3"/>
<path d="M339,440 L324,475" stroke="brown" stroke-width="3"/>
<path d="M324,475 L289,480" stroke="brown" stroke-width="3"/>
<path d="M289,480 L278,465" stroke="brown" stroke-width="3"/>
<path d="M278,465 L232,454" stroke="brown" stroke-width="3"/>
<path d="M232,454 L226,436" stroke="brown" stroke-width="3"/>
<path d="M226,436 L232,482" stroke="brown" stroke-width="3"/>
<path d="M232,482 L264,516" stroke="brown" stroke-width="3"/>
<path d="M264,516 L267,562" stroke="brown" stroke-width="3"/>
<path d="M267,562 L302,549" stroke="brown" stroke-width="3"/>
<path d="M302,549 L310,529" stroke="brown" stroke-width="3"/>
<path d="M310,529 L314,544" stroke="brown" stroke-width="3"/>
<path d="M314,544 L334,599" stroke="brown" stroke-width="3"/>
<path d="M334,599 L363,646" stroke="brown" stroke-width="3"/>
<path d="M363,646 L381,639" stroke="brown" stroke-width="3"/>
<path d="M381,639 L385,566" stroke="brown" stroke-width="3"/>
<path d="M385,566 L412,539" stroke="brown" stroke-width="3"/>
<path d="M412,539 L407,578" stroke="brown" stroke-width="3"/>
<path d="M407,578 L480,592" stroke="brown" stroke-width="3"/>
<path d="M480,592 L464,461" stroke="brown" stroke-width="3"/>
<path d="M464,461 L468,441" stroke="brown" stroke-width="3"/>
<path d="M468,441 L485,425" stroke="brown" stroke-width="3"/>
<path d="M485,425 L556,427" stroke="brown" stroke-width="3"/>
<path d="M556,427 L565,430" stroke="brown" stroke-width="3"/>
<path d="M565,430 L571,303" stroke="brown" stroke-width="3"/>
<path d="M571,303 L594,338" stroke="brown" stroke-width="3"/>
<path d="M594,338 L606,387" stroke="brown" stroke-width="3"/>
<path d="M606,387 L608,401" stroke="brown" stroke-width="3"/>
<path d="M608,401 L683,406" stroke="brown" stroke-width="3"/>
<path d="M683,406 L604,522" stroke="brown" stroke-width="3"/>
<path d="M604,522 L525,501" stroke="brown" stroke-width="3"/>
<path d="M525,501 L391,497" stroke="brown" stroke-width="3"/>
<path d="M391,497 L242,528" stroke="brown" stroke-width="3"/>
<path d="M242,528 L297,396" stroke="brown" stroke-width="3"/>
<path d="M297,396 L292,315" stroke="brown" stroke-width="3"/>
<path d="M292,315 L352,314" stroke="brown" stroke-width="3"/>
<path d="M352,314 L489,344" stroke="brown" stroke-width="3"/>
<path d="M489,344 L414,365" stroke="brown" stroke-width="3"/>
<path d="M414,365 L396,405" stroke="brown" stroke-width="3"/>
<path d="M396,405 L400,400" stroke="brown" stroke-width="3"/>
<circle cx="475" cy="417" fill="red" r="6"/>
<circle cx="232" cy="454" fill="green" r="6"/>
<circle cx="397" cy="261" fill="red" r="6"/>
<circle cx="289" cy="480" fill="green" r="6"/>
<circle cx="546" cy="333" fill="red" r="6"/>
<circle cx="525" cy="501" fill="green" r="6"/>
<circle cx="438" cy="404" fill="red" r="6"/>
<circle cx="468" cy="226" fill="green" r="6"/>
<circle cx="494" cy="363" fill="red" r="6"/>
<circle cx="412" cy="539" fill="green" r="6"/>
<circle cx="310" cy="529" fill="red" r="6"/>
<circle cx="292" cy="315" fill="green" r="6"/>
<circle cx="385" cy="394" fill="red" r="6"/>
<circle cx="683" cy="406" fill="green" r="6"/>
<circle cx="192" cy="270" fill="red" r="6"/>
<circle cx="334" cy="599" fill="green" r="6"/>
<circle cx="197" cy="279" fill="red" r="6"/>
<circle cx="396" cy="405" fill="green" r="6"/>
<circle cx="407" cy="578" fill="red" r="6"/>
<circle cx="556" cy="427" fill="green" r="6"/>
<circle cx="360" cy="493" fill="red" r="6"/>
<circle cx="480" cy="592" fill="green" r="6"/>
<circle cx="436" cy="529" fill="red" r="6"/>
<circle cx="232" cy="482" fill="green" r="6"/>
<circle cx="491" cy="430" fill="red" r="6"/>
<circle cx="343" cy="307" fill="green" r="6"/>
<circle cx="535" cy="457" fill="red" r="6"/>
<circle cx="391" cy="497" fill="green" r="6"/>
<circle cx="512" cy="382" fill="red" r="6"/>
<circle cx="533" cy="295" fill="green" r="6"/>
<circle cx="508" cy="488" fill="red" r="6"/>
<circle cx="295" cy="366" fill="green" r="6"/>
<circle cx="539" cy="222" fill="red" r="6"/>
<circle cx="571" cy="303" fill="green" r="6"/>
<circle cx="385" cy="566" fill="red" r="6"/>
<circle cx="242" cy="528" fill="green" r="6"/>
<circle cx="489" cy="268" fill="red" r="6"/>
<circle cx="594" cy="338" fill="green" r="6"/>
<circle cx="211" cy="385" fill="red" r="6"/>
<circle cx="405" cy="353" fill="green" r="6"/>
<circle cx="267" cy="562" fill="red" r="6"/>
<circle cx="414" cy="365" fill="green" r="6"/>
<circle cx="524" cy="244" fill="red" r="6"/>
<circle cx="371" cy="211" fill="green" r="6"/>
<circle cx="337" cy="317" fill="red" r="6"/>
<circle cx="324" cy="475" fill="green" r="6"/>
<circle cx="295" cy="283" fill="red" r="6"/>
<circle cx="278" cy="465" fill="green" r="6"/>
<circle cx="290" cy="390" fill="red" r="6"/>
<circle cx="415" cy="258" fill="green" r="6"/>
<circle cx="366" cy="259" fill="red" r="6"/>
<circle cx="226" cy="436" fill="green" r="6"/>
<circle cx="411" cy="215" fill="red" r="6"/>
<circle cx="485" cy="425" fill="green" r="6"/>
<circle cx="453" cy="363" fill="red" r="6"/>
<circle cx="179" cy="374" fill="green" r="6"/>
<circle cx="394" cy="339" fill="red" r="6"/>
<circle cx="608" cy="401" fill="green" r="6"/>
<circle cx="231" cy="255" fill="red" r="6"/>
<circle cx="390" cy="257" fill="green" r="6"/>
<circle cx="500" cy="454" fill="red" r="6"/>
<circle cx="277" cy="375" fill="green" r="6"/>
<circle cx="100" cy="417" fill="red" r="6"/>
<circle cx="376" cy="417" fill="green" r="6"/>
<circle cx="461" cy="521" fill="red" r="6"/>
<circle cx="604" cy="522" fill="green" r="6"/>
<circle cx="194" cy="347" fill="red" r="6"/>
<circle cx="489" cy="344" fill="green" r="6"/>
<circle cx="522" cy="462" fill="red" r="6"/>
<circle cx="407" cy="367" fill="green" r="6"/>
<circle cx="347" cy="194" fill="red" r="6"/>
<circle cx="426" cy="139" fill="green" r="6"/>
<circle cx="386" cy="434" fill="red" r="6"/>
<circle cx="565" cy="430" fill="green" r="6"/>
<circle cx="264" cy="516" fill="red" r="6"/>
<circle cx="464" cy="461" fill="green" r="6"/>
<circle cx="404" cy="353" fill="red" r="6"/>
<circle cx="314" cy="544" fill="green" r="6"/>
<circle cx="372" cy="471" fill="red" r="6"/>
<circle cx="305" cy="324" fill="green" r="6"/>
<circle cx="468" cy="441" fill="red" r="6"/>
<circle cx="606" cy="387" fill="green" r="6"/>
<circle cx="379" cy="410" fill="red" r="6"/>
<circle cx="494" cy="369" fill="green" r="6"/>
<circle cx="299" cy="374" fill="red" r="6"/>
<circle cx="302" cy="549" fill="green" r="6"/>
<circle cx="239" cy="276" fill="red" r="6"/>
<circle cx="402" cy="231" fill="green" r="6"/>
<circle cx="470" cy="340" fill="red" r="6"/>
<circle cx="226" cy="344" fill="green" r="6"/>
<circle cx="339" cy="440" fill="red" r="6"/>
<circle cx="352" cy="314" fill="green" r="6"/>
<circle cx="363" cy="646" fill="red" r="6"/>
<circle cx="297" cy="396" fill="green" r="6"/>
<circle cx="284" cy="202" fill="red" r="6"/>
<circle cx="330" cy="283" fill="green" r="6"/>
<circle cx="399" cy="493" fill="red" r="6"/>
<circle cx="487" cy="284" fill="green" r="6"/>
<circle cx="468" cy="405" fill="red" r="6"/>
<circle cx="381" cy="639" fill="green" r="6"/>
<circle cx="400" cy="400" fill="gray" r="6"/>
</svg>