<svg viewBox="0 0 10000 10000" xmlns="http://www.w3.org/2000/svg">
<path d="M0,0 l10000,0 l0,10000 l-10000,0 z" fill="white"/>
<path d="M3150,958 l1148,0 l0,2678 l-1148,0 z" fill="#a700ff" stroke="black" stroke-width="5"/>
<path d="M4937,8082 l4589,0 l0,481 l-4589,0 z" fill="#f900ff" stroke="black" stroke-width="5"/>
<path d="M3301,641 l937,0 l0,317 l-937,0 z" fill="#ff00fe" stroke="black" stroke-width="5"/>
<path d="M2845,5089 l430,0 l0,1366 l-430,0 z" fill="#0300ff" stroke="black" stroke-width="5"/>
<path d="M640,2984 l595,0 l0,311 l-595,0 z" fill="#fe00ff" stroke="black" stroke-width="5"/>
<path d="M8133,8563 l1383,0 l0,1416 l-1383,0 z" fill="#cd00ff" stroke="black" stroke-width="5"/>
<path d="M1097,3335 l627,0 l0,730 l-627,0 z" fill="#fe00ff" stroke="black" stroke-width="5"/>
<path d="M5078,3545 l1573,0 l0,697 l-1573,0 z" fill="#fe00ff" stroke="black" stroke-width="5"/>
<path d="M7192,5135 l1666,0 l0,1911 l-1666,0 z" fill="#ff00fe" stroke="black" stroke-width="5"/>
<path d="M0,2 l1647,0 l0,2982 l-1647,0 z" fill="#e000ff" stroke="black" stroke-width="5"/>
<path d="M2845,4055 l484,0 l0,1034 l-484,0 z" fill="#fc00ff" stroke="black" stroke-width="5"/>
<path d="M1647,78 l1167,0 l0,3208 l-1167,0 z" fill="#f700ff" stroke="black" stroke-width="5"/>
<path d="M4094,8765 l882,0 l0,1135 l-882,0 z" fill="#fe00ff" stroke="black" stroke-width="5"/>
<path d="M4298,2974 l433,0 l0,291 l-433,0 z" fill="#ff00fe" stroke="black" stroke-width="5"/>
<path d="M3329,3636 l1692,0 l0,1214 l-1692,0 z" fill="#f200ff" stroke="black" stroke-width="5"/>
<path d="M8005,9079 l93,0 l0,336 l-93,0 z" fill="#ff00fe" stroke="black" stroke-width="5"/>
<path d="M2352,7153 l1774,0 l0,859 l-1774,0 z" fill="#f600ff" stroke="black" stroke-width="5"/>
<path d="M7095,3526 l2203,0 l0,1550 l-2203,0 z" fill="#fe00ff" stroke="black" stroke-width="5"/>
<path d="M8635,523 l1364,0 l0,959 l-1364,0 z" fill="#9500ff" stroke="black" stroke-width="5"/>
<path d="M275,6278 l369,0 l0,173 l-369,0 z" fill="#fe00ff" stroke="black" stroke-width="5"/>
<path d="M6688,6818 l447,0 l0,1123 l-447,0 z" fill="#ff00fe" stroke="black" stroke-width="5"/>
<path d="M2810,6455 l1459,0 l0,698 l-1459,0 z" fill="#f800ff" stroke="black" stroke-width="5"/>
<path d="M4278,5196 l160,0 l0,2241 l-160,0 z" fill="#ff00fe" stroke="black" stroke-width="5"/>
<path d="M4591,4880 l1285,0 l0,1040 l-1285,0 z" fill="#ea00ff" stroke="black" stroke-width="5"/>
<path d="M5510,495 l791,0 l0,782 l-791,0 z" fill="#ff00fe" stroke="black" stroke-width="5"/>
<path d="M2100,4046 l745,0 l0,1751 l-745,0 z" fill="#8100ff" stroke="black" stroke-width="5"/>
<path d="M4441,5920 l1509,0 l0,1515 l-1509,0 z" fill="#5800ff" stroke="black" stroke-width="5"/>
<path d="M2424,6410 l386,0 l0,314 l-386,0 z" fill="#ff00fe" stroke="black" stroke-width="5"/>
<path d="M9003,1482 l743,0 l0,644 l-743,0 z" fill="#ff00fe" stroke="black" stroke-width="5"/>
<path d="M0,6451 l652,0 l0,3041 l-652,0 z" fill="#c300ff" stroke="black" stroke-width="5"/>
<path d="M7208,7046 l1392,0 l0,1013 l-1392,0 z" fill="#fe00ff" stroke="black" stroke-width="5"/>
<path d="M1842,3286 l898,0 l0,377 l-898,0 z" fill="#ff00fe" stroke="black" stroke-width="5"/>
<path d="M6217,3023 l1233,0 l0,488 l-1233,0 z" fill="#ff00fe" stroke="black" stroke-width="5"/>
<path d="M6817,29 l589,0 l0,855 l-589,0 z" fill="#f600ff" stroke="black" stroke-width="5"/>
<path d="M4498,4852 l93,0 l0,944 l-93,0 z" fill="#fe00ff" stroke="black" stroke-width="5"/>
<path d="M6664,5957 l360,0 l0,712 l-360,0 z" fill="#fe00ff" stroke="black" stroke-width="5"/>
<path d="M326,9525 l307,0 l0,242 l-307,0 z" fill="#fe00ff" stroke="black" stroke-width="5"/>
<path d="M1048,8662 l567,0 l0,1163 l-567,0 z" fill="#fe00ff" stroke="black" stroke-width="5"/>
<path d="M5123,9155 l1216,0 l0,793 l-1216,0 z" fill="#ff00fe" stroke="black" stroke-width="5"/>
<path d="M654,5565 l1074,0 l0,2463 l-1074,0 z" fill="#e800ff" stroke="black" stroke-width="5"/>
<path d="M6503,9579 l1488,0 l0,238 l-1488,0 z" fill="#ff00fe" stroke="black" stroke-width="5"/>
<path d="M2888,9234 l61,0 l0,252 l-61,0 z" fill="#fe00ff" stroke="black" stroke-width="5"/>
<path d="M7991,9582 l142,0 l0,383 l-142,0 z" fill="#ff00fe" stroke="black" stroke-width="5"/>
<path d="M4298,311 l1052,0 l0,2653 l-1052,0 z" fill="#fd00ff" stroke="black" stroke-width="5"/>
<path d="M3388,4850 l1080,0 l0,346 l-1080,0 z" fill="#fe00ff" stroke="black" stroke-width="5"/>
<path d="M3278,5873 l138,0 l0,537 l-138,0 z" fill="#ff00fe" stroke="black" stroke-width="5"/>
<path d="M9410,6505 l183,0 l0,431 l-183,0 z" fill="#fe00ff" stroke="black" stroke-width="5"/>
<path d="M36,3732 l1061,0 l0,372 l-1061,0 z" fill="#fe00ff" stroke="black" stroke-width="5"/>
<path d="M8172,2153 l1016,0 l0,1171 l-1016,0 z" fill="#ff00fe" stroke="black" stroke-width="5"/>
<path d="M1728,5799 l624,0 l0,2186 l-624,0 z" fill="#fe00ff" stroke="black" stroke-width="5"/>
<path d="M814,8031 l943,0 l0,619 l-943,0 z" fill="#fe00ff" stroke="black" stroke-width="5"/>
<path d="M6,4104 l830,0 l0,1461 l-830,0 z" fill="#fd00ff" stroke="black" stroke-width="5"/>
<path d="M1758,8012 l2318,0 l0,1222 l-2318,0 z" fill="#f000ff" stroke="black" stroke-width="5"/>
<path d="M5950,5826 l714,0 l0,1126 l-714,0 z" fill="#fe00ff" stroke="black" stroke-width="5"/>
<path d="M7543,523 l1092,0 l0,374 l-1092,0 z" fill="#ff00fd" stroke="black" stroke-width="5"/>
<path d="M6316,897 l2319,0 l0,1256 l-2319,0 z" fill="#ee00ff" stroke="black" stroke-width="5"/>
<path d="M8600,7046 l1346,0 l0,1036 l-1346,0 z" fill="#ff00fe" stroke="black" stroke-width="5"/>
<path d="M5387,1277 l155,0 l0,1149 l-155,0 z" fill="#ff00fe" stroke="black" stroke-width="5"/>
<path d="M3013,2062 l126,0 l0,214 l-126,0 z" fill="#ff00fe" stroke="black" stroke-width="5"/>
<path d="M2825,0 l325,0 l0,2062 l-325,0 z" fill="#fa00ff" stroke="black" stroke-width="5"/>
<path d="M1724,3665 l1605,0 l0,380 l-1605,0 z" fill="#fc00ff" stroke="black" stroke-width="5"/>
<path d="M5564,1652 l752,0 l0,636 l-752,0 z" fill="#ff00fe" stroke="black" stroke-width="5"/>
<path d="M4967,7500 l1464,0 l0,385 l-1464,0 z" fill="#ff00fe" stroke="black" stroke-width="5"/>
<path d="M5062,4338 l2033,0 l0,542 l-2033,0 z" fill="#fe00ff" stroke="black" stroke-width="5"/>
<path d="M5984,6966 l420,0 l0,218 l-420,0 z" fill="#ff00fe" stroke="black" stroke-width="5"/>
<path d="M4126,7451 l811,0 l0,1314 l-811,0 z" fill="#fd00ff" stroke="black" stroke-width="5"/>
<path d="M836,4104 l1264,0 l0,1461 l-1264,0 z" fill="#fd00ff" stroke="black" stroke-width="5"/>
<path d="M9526,8082 l464,0 l0,1905 l-464,0 z" fill="#ff00fe" stroke="black" stroke-width="5"/>
<path d="M7406,0 l2582,0 l0,523 l-2582,0 z" fill="#9500ff" stroke="black" stroke-width="5"/>
<path d="M3172,27 l3645,0 l0,284 l-3645,0 z" fill="#ff00fe" stroke="black" stroke-width="5"/>
<path d="M5906,5516 l891,0 l0,287 l-891,0 z" fill="#fe00ff" stroke="black" stroke-width="5"/>
<path d="M3523,1986 l60,0 l0,60 l-60,0 z" fill="green"/>
<path d="M3553,2016 l171,281" stroke="black" stroke-width="5"/>
<path d="M9248,8365 l60,0 l0,60 l-60,0 z" fill="green"/>
<path d="M9278,8395 l-2046.5,-72.5" stroke="black" stroke-width="5"/>
<path d="M3688,673 l60,0 l0,60 l-60,0 z" fill="green"/>
<path d="M3718,703 l51.5,96.5" stroke="black" stroke-width="5"/>
<path d="M3169,6207 l60,0 l0,60 l-60,0 z" fill="green"/>
<path d="M3199,6237 l-139,-465" stroke="black" stroke-width="5"/>
<path d="M736,2988 l60,0 l0,60 l-60,0 z" fill="green"/>
<path d="M766,3018 l171.5,121.5" stroke="black" stroke-width="5"/>
<path d="M8657,9621 l60,0 l0,60 l-60,0 z" fill="green"/>
<path d="M8687,9651 l137.5,-380" stroke="black" stroke-width="5"/>
<path d="M1587,3713 l60,0 l0,60 l-60,0 z" fill="green"/>
<path d="M1617,3743 l-206.5,-43" stroke="black" stroke-width="5"/>
<path d="M5496,3965 l60,0 l0,60 l-60,0 z" fill="green"/>
<path d="M5526,3995 l338.5,-101.5" stroke="black" stroke-width="5"/>
<path d="M8296,6992 l60,0 l0,60 l-60,0 z" fill="green"/>
<path d="M8326,7022 l-301,-931.5" stroke="black" stroke-width="5"/>
<path d="M449,881 l60,0 l0,60 l-60,0 z" fill="green"/>
<path d="M479,911 l344.5,582" stroke="black" stroke-width="5"/>
<path d="M3103,4222 l60,0 l0,60 l-60,0 z" fill="green"/>
<path d="M3133,4252 l-46,320" stroke="black" stroke-width="5"/>
<path d="M2630,1503 l60,0 l0,60 l-60,0 z" fill="green"/>
<path d="M2660,1533 l-429.5,149" stroke="black" stroke-width="5"/>
<path d="M4605,9478 l60,0 l0,60 l-60,0 z" fill="green"/>
<path d="M4635,9508 l-100,-175.5" stroke="black" stroke-width="5"/>
<path d="M4275,3021 l60,0 l0,60 l-60,0 z" fill="green"/>
<path d="M4305,3051 l209.5,68.5" stroke="black" stroke-width="5"/>
<path d="M3792,3830 l60,0 l0,60 l-60,0 z" fill="green"/>
<path d="M3822,3860 l353,383" stroke="black" stroke-width="5"/>
<path d="M7982,9338 l60,0 l0,60 l-60,0 z" fill="green"/>
<path d="M8012,9368 l39.5,-121" stroke="black" stroke-width="5"/>
<path d="M3871,7723 l60,0 l0,60 l-60,0 z" fill="green"/>
<path d="M3901,7753 l-662,-170.5" stroke="black" stroke-width="5"/>
<path d="M7738,4662 l60,0 l0,60 l-60,0 z" fill="green"/>
<path d="M7768,4692 l428.5,-391" stroke="black" stroke-width="5"/>
<path d="M9294,801 l60,0 l0,60 l-60,0 z" fill="green"/>
<path d="M9324,831 l-7,171.5" stroke="black" stroke-width="5"/>
<path d="M574,6413 l60,0 l0,60 l-60,0 z" fill="green"/>
<path d="M604,6443 l-144.5,-78.5" stroke="black" stroke-width="5"/>
<path d="M6959,7346 l60,0 l0,60 l-60,0 z" fill="green"/>
<path d="M6989,7376 l-77.5,3.5" stroke="black" stroke-width="5"/>
<path d="M3179,6603 l60,0 l0,60 l-60,0 z" fill="green"/>
<path d="M3209,6633 l330.5,171" stroke="black" stroke-width="5"/>
<path d="M4395,7333 l60,0 l0,60 l-60,0 z" fill="green"/>
<path d="M4425,7363 l-67,-1046.5" stroke="black" stroke-width="5"/>
<path d="M5137,5567 l60,0 l0,60 l-60,0 z" fill="green"/>
<path d="M5167,5597 l66.5,-197" stroke="black" stroke-width="5"/>
<path d="M5912,588 l60,0 l0,60 l-60,0 z" fill="green"/>
<path d="M5942,618 l-36.5,268" stroke="black" stroke-width="5"/>
<path d="M2466,4204 l60,0 l0,60 l-60,0 z" fill="green"/>
<path d="M2496,4234 l-23.5,687.5" stroke="black" stroke-width="5"/>
<path d="M4912,7302 l60,0 l0,60 l-60,0 z" fill="green"/>
<path d="M4942,7332 l253.5,-654.5" stroke="black" stroke-width="5"/>
<path d="M2662,6626 l60,0 l0,60 l-60,0 z" fill="green"/>
<path d="M2692,6656 l-75,-89" stroke="black" stroke-width="5"/>
<path d="M9019,1453 l60,0 l0,60 l-60,0 z" fill="green"/>
<path d="M9049,1483 l325.5,321" stroke="black" stroke-width="5"/>
<path d="M106,7257 l60,0 l0,60 l-60,0 z" fill="green"/>
<path d="M136,7287 l190,684.5" stroke="black" stroke-width="5"/>
<path d="M8406,7693 l60,0 l0,60 l-60,0 z" fill="green"/>
<path d="M8436,7723 l-532,-170.5" stroke="black" stroke-width="5"/>
<path d="M2053,3631 l60,0 l0,60 l-60,0 z" fill="green"/>
<path d="M2083,3661 l208,-186.5" stroke="black" stroke-width="5"/>
<path d="M6740,3479 l60,0 l0,60 l-60,0 z" fill="green"/>
<path d="M6770,3509 l63.5,-242" stroke="black" stroke-width="5"/>
<path d="M7357,437 l60,0 l0,60 l-60,0 z" fill="green"/>
<path d="M7387,467 l-275.5,-10.5" stroke="black" stroke-width="5"/>
<path d="M4522,5720 l60,0 l0,60 l-60,0 z" fill="green"/>
<path d="M4552,5750 l-7.5,-426" stroke="black" stroke-width="5"/>
<path d="M6660,6505 l60,0 l0,60 l-60,0 z" fill="green"/>
<path d="M6690,6535 l154,-222" stroke="black" stroke-width="5"/>
<path d="M348,9572 l60,0 l0,60 l-60,0 z" fill="green"/>
<path d="M378,9602 l101.5,44" stroke="black" stroke-width="5"/>
<path d="M1512,8868 l60,0 l0,60 l-60,0 z" fill="green"/>
<path d="M1542,8898 l-210.5,345.5" stroke="black" stroke-width="5"/>
<path d="M5376,9840 l60,0 l0,60 l-60,0 z" fill="green"/>
<path d="M5406,9870 l325,-318.5" stroke="black" stroke-width="5"/>
<path d="M1384,6122 l60,0 l0,60 l-60,0 z" fill="green"/>
<path d="M1414,6152 l-223,644.5" stroke="black" stroke-width="5"/>
<path d="M6676,9763 l60,0 l0,60 l-60,0 z" fill="green"/>
<path d="M6706,9793 l541,-95" stroke="black" stroke-width="5"/>
<path d="M2916,9207 l60,0 l0,60 l-60,0 z" fill="green"/>
<path d="M2946,9237 l-27.5,123" stroke="black" stroke-width="5"/>
<path d="M8078,9890 l60,0 l0,60 l-60,0 z" fill="green"/>
<path d="M8108,9920 l-46,-146.5" stroke="black" stroke-width="5"/>
<path d="M4448,1971 l60,0 l0,60 l-60,0 z" fill="green"/>
<path d="M4478,2001 l346,-363.5" stroke="black" stroke-width="5"/>
<path d="M4356,4900 l60,0 l0,60 l-60,0 z" fill="green"/>
<path d="M4386,4930 l-458,93" stroke="black" stroke-width="5"/>
<path d="M3248,6360 l60,0 l0,60 l-60,0 z" fill="green"/>
<path d="M3278,6390 l69,-248.5" stroke="black" stroke-width="5"/>
<path d="M9518,6871 l60,0 l0,60 l-60,0 z" fill="green"/>
<path d="M9548,6901 l-46.5,-180.5" stroke="black" stroke-width="5"/>
<path d="M1044,3835 l60,0 l0,60 l-60,0 z" fill="green"/>
<path d="M1074,3865 l-507.5,53" stroke="black" stroke-width="5"/>
<path d="M8822,2732 l60,0 l0,60 l-60,0 z" fill="green"/>
<path d="M8852,2762 l-172,-23.5" stroke="black" stroke-width="5"/>
<path d="M1744,6825 l60,0 l0,60 l-60,0 z" fill="green"/>
<path d="M1774,6855 l266,37" stroke="black" stroke-width="5"/>
<path d="M1707,8319 l60,0 l0,60 l-60,0 z" fill="green"/>
<path d="M1737,8349 l-451.5,-8.5" stroke="black" stroke-width="5"/>
<path d="M805,4839 l60,0 l0,60 l-60,0 z" fill="green"/>
<path d="M835,4869 l-414,-34.5" stroke="black" stroke-width="5"/>
<path d="M3465,8216 l60,0 l0,60 l-60,0 z" fill="green"/>
<path d="M3495,8246 l-578,377" stroke="black" stroke-width="5"/>
<path d="M6524,6562 l60,0 l0,60 l-60,0 z" fill="green"/>
<path d="M6554,6592 l-247,-203" stroke="black" stroke-width="5"/>
<path d="M8304,814 l60,0 l0,60 l-60,0 z" fill="green"/>
<path d="M8334,844 l-245,-134" stroke="black" stroke-width="5"/>
<path d="M8566,1039 l60,0 l0,60 l-60,0 z" fill="green"/>
<path d="M8596,1069 l-1120.5,456" stroke="black" stroke-width="5"/>
<path d="M8925,7529 l60,0 l0,60 l-60,0 z" fill="green"/>
<path d="M8955,7559 l318,5" stroke="black" stroke-width="5"/>
<path d="M5505,1810 l60,0 l0,60 l-60,0 z" fill="green"/>
<path d="M5535,1840 l-70.5,11.5" stroke="black" stroke-width="5"/>
<path d="M3003,2227 l60,0 l0,60 l-60,0 z" fill="green"/>
<path d="M3033,2257 l43,-88" stroke="black" stroke-width="5"/>
<path d="M3108,1478 l60,0 l0,60 l-60,0 z" fill="green"/>
<path d="M3138,1508 l-150.5,-477" stroke="black" stroke-width="5"/>
<path d="M2517,3999 l60,0 l0,60 l-60,0 z" fill="green"/>
<path d="M2547,4029 l-20.5,-174" stroke="black" stroke-width="5"/>
<path d="M6007,1768 l60,0 l0,60 l-60,0 z" fill="green"/>
<path d="M6037,1798 l-97,172" stroke="black" stroke-width="5"/>
<path d="M5037,7550 l60,0 l0,60 l-60,0 z" fill="green"/>
<path d="M5067,7580 l632,112.5" stroke="black" stroke-width="5"/>
<path d="M5065,4762 l60,0 l0,60 l-60,0 z" fill="green"/>
<path d="M5095,4792 l983.5,-183" stroke="black" stroke-width="5"/>
<path d="M5954,6987 l60,0 l0,60 l-60,0 z" fill="green"/>
<path d="M5984,7017 l210,58" stroke="black" stroke-width="5"/>
<path d="M4171,7599 l60,0 l0,60 l-60,0 z" fill="green"/>
<path d="M4201,7629 l330.5,479" stroke="black" stroke-width="5"/>
<path d="M2068,4253 l60,0 l0,60 l-60,0 z" fill="green"/>
<path d="M2098,4283 l-630,551.5" stroke="black" stroke-width="5"/>
<path d="M9830,8507 l60,0 l0,60 l-60,0 z" fill="green"/>
<path d="M9860,8537 l-102,497.5" stroke="black" stroke-width="5"/>
<path d="M9008,145 l60,0 l0,60 l-60,0 z" fill="green"/>
<path d="M9038,175 l-341,86.5" stroke="black" stroke-width="5"/>
<path d="M5809,114 l60,0 l0,60 l-60,0 z" fill="green"/>
<path d="M5839,144 l-844.5,25" stroke="black" stroke-width="5"/>
<path d="M5893,5522 l60,0 l0,60 l-60,0 z" fill="green"/>
<path d="M5923,5552 l428.5,107.5" stroke="black" stroke-width="5"/>
<text font-size="167.83627165933783" text-anchor="middle" x="3724" y="2355.742695080768">
0
</text>
<text font-size="167.83627165933783" text-anchor="middle" x="7231.5" y="8381.242695080768">
1
</text>
<text font-size="167.83627165933783" text-anchor="middle" x="3769.5" y="858.2426950807683">
2
</text>
<text font-size="167.83627165933783" text-anchor="middle" x="3060" y="5830.7426950807685">
3
</text>
<text font-size="167.83627165933783" text-anchor="middle" x="937.5" y="3198.242695080768">
4
</text>
<text font-size="167.83627165933783" text-anchor="middle" x="8824.5" y="9329.742695080768">
5
</text>
<text font-size="167.83627165933783" text-anchor="middle" x="1410.5" y="3758.742695080768">
6
</text>
<text font-size="167.83627165933783" text-anchor="middle" x="5864.5" y="3952.242695080768">
7
</text>
<text font-size="167.83627165933783" text-anchor="middle" x="8025" y="6149.2426950807685">
8
</text>
<text font-size="167.83627165933783" text-anchor="middle" x="823.5" y="1551.7426950807683">
9
</text>
<text font-size="167.83627165933783" text-anchor="middle" x="3087" y="4630.7426950807685">
10
</text>
<text font-size="167.83627165933783" text-anchor="middle" x="2230.5" y="1740.7426950807683">
11
</text>
<text font-size="167.83627165933783" text-anchor="middle" x="4535" y="9391.242695080768">
12
</text>
<text font-size="167.83627165933783" text-anchor="middle" x="4514.5" y="3178.242695080768">
13
</text>
<text font-size="167.83627165933783" text-anchor="middle" x="4175" y="4301.7426950807685">
14
</text>
<text font-size="167.83627165933783" text-anchor="middle" x="8051.5" y="9305.742695080768">
15
</text>
<text font-size="167.83627165933783" text-anchor="middle" x="3239" y="7641.2426950807685">
16
</text>
<text font-size="167.83627165933783" text-anchor="middle" x="8196.5" y="4359.7426950807685">
17
</text>
<text font-size="167.83627165933783" text-anchor="middle" x="9317" y="1061.2426950807683">
18
</text>
<text font-size="167.83627165933783" text-anchor="middle" x="459.5" y="6423.2426950807685">
19
</text>
<text font-size="167.83627165933783" text-anchor="middle" x="6911.5" y="7438.2426950807685">
20
</text>
<text font-size="167.83627165933783" text-anchor="middle" x="3539.5" y="6862.7426950807685">
21
</text>
<text font-size="167.83627165933783" text-anchor="middle" x="4358" y="6375.2426950807685">
22
</text>
<text font-size="167.83627165933783" text-anchor="middle" x="5233.5" y="5458.7426950807685">
23
</text>
<text font-size="167.83627165933783" text-anchor="middle" x="5905.5" y="944.7426950807683">
24
</text>
<text font-size="167.83627165933783" text-anchor="middle" x="2472.5" y="4980.2426950807685">
25
</text>
<text font-size="167.83627165933783" text-anchor="middle" x="5195.5" y="6736.2426950807685">
26
</text>
<text font-size="167.83627165933783" text-anchor="middle" x="2617" y="6625.7426950807685">
27
</text>
<text font-size="167.83627165933783" text-anchor="middle" x="9374.5" y="1862.7426950807683">
28
</text>
<text font-size="167.83627165933783" text-anchor="middle" x="326" y="8030.2426950807685">
29
</text>
<text font-size="167.83627165933783" text-anchor="middle" x="7904" y="7611.2426950807685">
30
</text>
<text font-size="167.83627165933783" text-anchor="middle" x="2291" y="3533.242695080768">
31
</text>
<text font-size="167.83627165933783" text-anchor="middle" x="6833.5" y="3325.742695080768">
32
</text>
<text font-size="167.83627165933783" text-anchor="middle" x="7111.5" y="515.2426950807683">
33
</text>
<text font-size="167.83627165933783" text-anchor="middle" x="4544.5" y="5382.7426950807685">
34
</text>
<text font-size="167.83627165933783" text-anchor="middle" x="6844" y="6371.7426950807685">
35
</text>
<text font-size="167.83627165933783" text-anchor="middle" x="479.5" y="9704.742695080768">
36
</text>
<text font-size="167.83627165933783" text-anchor="middle" x="1331.5" y="9302.242695080768">
37
</text>
<text font-size="167.83627165933783" text-anchor="middle" x="5731" y="9610.242695080768">
38
</text>
<text font-size="167.83627165933783" text-anchor="middle" x="1191" y="6855.2426950807685">
39
</text>
<text font-size="167.83627165933783" text-anchor="middle" x="7247" y="9756.742695080768">
40
</text>
<text font-size="167.83627165933783" text-anchor="middle" x="2918.5" y="9418.742695080768">
41
</text>
<text font-size="167.83627165933783" text-anchor="middle" x="8062" y="9832.242695080768">
42
</text>
<text font-size="167.83627165933783" text-anchor="middle" x="4824" y="1696.2426950807683">
43
</text>
<text font-size="167.83627165933783" text-anchor="middle" x="3928" y="5081.7426950807685">
44
</text>
<text font-size="167.83627165933783" text-anchor="middle" x="3347" y="6200.2426950807685">
45
</text>
<text font-size="167.83627165933783" text-anchor="middle" x="9501.5" y="6779.2426950807685">
46
</text>
<text font-size="167.83627165933783" text-anchor="middle" x="566.5" y="3976.742695080768">
47
</text>
<text font-size="167.83627165933783" text-anchor="middle" x="8680" y="2797.242695080768">
48
</text>
<text font-size="167.83627165933783" text-anchor="middle" x="2040" y="6950.7426950807685">
49
</text>
<text font-size="167.83627165933783" text-anchor="middle" x="1285.5" y="8399.242695080768">
50
</text>
<text font-size="167.83627165933783" text-anchor="middle" x="421" y="4893.2426950807685">
51
</text>
<text font-size="167.83627165933783" text-anchor="middle" x="2917" y="8681.742695080768">
52
</text>
<text font-size="167.83627165933783" text-anchor="middle" x="6307" y="6447.7426950807685">
53
</text>
<text font-size="167.83627165933783" text-anchor="middle" x="8089" y="768.7426950807683">
54
</text>
<text font-size="167.83627165933783" text-anchor="middle" x="7475.5" y="1583.7426950807683">
55
</text>
<text font-size="167.83627165933783" text-anchor="middle" x="9273" y="7622.7426950807685">
56
</text>
<text font-size="167.83627165933783" text-anchor="middle" x="5464.5" y="1910.2426950807683">
57
</text>
<text font-size="167.83627165933783" text-anchor="middle" x="3076" y="2227.742695080768">
58
</text>
<text font-size="167.83627165933783" text-anchor="middle" x="2987.5" y="1089.7426950807683">
59
</text>
<text font-size="167.83627165933783" text-anchor="middle" x="2526.5" y="3913.742695080768">
60
</text>
<text font-size="167.83627165933783" text-anchor="middle" x="5940" y="2028.7426950807683">
61
</text>
<text font-size="167.83627165933783" text-anchor="middle" x="5699" y="7751.2426950807685">
62
</text>
<text font-size="167.83627165933783" text-anchor="middle" x="6078.5" y="4667.7426950807685">
63
</text>
<text font-size="167.83627165933783" text-anchor="middle" x="6194" y="7133.7426950807685">
64
</text>
<text font-size="167.83627165933783" text-anchor="middle" x="4531.5" y="8166.7426950807685">
65
</text>
<text font-size="167.83627165933783" text-anchor="middle" x="1468" y="4893.2426950807685">
66
</text>
<text font-size="167.83627165933783" text-anchor="middle" x="9758" y="9093.242695080768">
67
</text>
<text font-size="167.83627165933783" text-anchor="middle" x="8697" y="320.2426950807682">
68
</text>
<text font-size="167.83627165933783" text-anchor="middle" x="4994.5" y="227.74269508076824">
69
</text>
<text font-size="167.83627165933783" text-anchor="middle" x="6351.5" y="5718.2426950807685">
70
</text>
</svg>